<svg xmlns="http://www.w3.org/2000/svg" width="359.999" height="779.52" version="1.0" viewBox="0 0 9524.98 20624.78" shape-rendering="geometricPrecision" text-rendering="geometricPrecision" image-rendering="optimizeQuality" fill-rule="evenodd" clip-rule="evenodd"><path d="M5533.74 9650.84H3982.78c-91.38 0-165.39 74.47-165.39 165.39v992.32c0 91.46 74.55 165.39 165.39 165.39h1550.96c90.62 0 165.39-73.62 165.39-165.39v-992.32c0-90.76-73.72-165.39-165.39-165.39zm-23.16 110.26c-33.79 33.61-615.3 612.05-635.37 632.02-31.24 31.24-72.77 48.44-116.95 48.44-44.18 0-85.71-17.2-117.05-48.54-13.5-13.43-588.59-585.49-635.27-631.92h1504.64zm-1582.93 1025.01v-947.37l476.45 473.94-476.45 473.43zm78.36 77.57l476.27-473.24 81.07 80.65c52.06 52.06 121.28 80.73 194.91 80.73s142.85-28.67 194.81-80.63l81.17-80.75 476.27 473.24h-1504.5zm1582.86-77.57l-476.45-473.43 476.45-473.94v947.37z" fill="#222f3e"/></svg>