<svg xmlns="http://www.w3.org/2000/svg" width="359.999" height="779.52" version="1.0" viewBox="0 0 9524.98 20624.78" shape-rendering="geometricPrecision" text-rendering="geometricPrecision" image-rendering="optimizeQuality" fill-rule="evenodd" clip-rule="evenodd"><defs><style>.fil0{fill:#222f3e}</style></defs><g id="Layer_x0020_1"><path class="fil0" d="M4717.57 9799.8c-242.62 0-439.99 197.37-439.99 439.99v467.29h91.03v-467.29c0-192.41 156.53-348.96 348.96-348.96 192.42 0 348.95 156.55 348.95 348.96v467.29h91.04v-467.29c-.01-242.62-197.38-439.99-439.99-439.99z" id="_1800074520208"/><path class="fil0" d="M5209.14 10661.57h-971.01c-25.14 0-45.51 20.37-45.51 45.51 0 25.14 20.37 45.52 45.51 45.52h971.01c25.14 0 45.51-20.38 45.51-45.52 0-25.14-20.38-45.51-45.51-45.51z" id="_1800074516976"/><path class="fil0" d="M4796.46 10707.08v78.9c0 41.83-34.03 75.86-75.86 75.86s-75.86-34.03-75.86-75.86v-78.9h-91.03v78.9c0 92.02 74.87 166.89 166.89 166.89 92.02 0 166.89-74.87 166.89-166.89v-78.9h-91.03z" id="_1800074517136"/></g></svg>