<svg xmlns="http://www.w3.org/2000/svg" width="359.999" height="779.52" version="1.0" viewBox="0 0 9524.98 20624.78" shape-rendering="geometricPrecision" text-rendering="geometricPrecision" image-rendering="optimizeQuality" fill-rule="evenodd" clip-rule="evenodd"><defs><style>.fil0{fill:#222f3e}</style></defs><g id="Layer_x0020_1"><g id="_1799733343440"><circle class="fil0" cx="4990.22" cy="10495.52" r="40.7"/><path class="fil0" d="M5173.35 10528.08c22.48 0 40.7-18.22 40.7-40.7v-150.57c0-89.76-73.03-162.78-162.78-162.78h-48.91v-143.52c0-131.8-109.54-239.02-244.18-239.02-134.63 0-244.17 107.22-244.17 239.02v143.52h-48.76c-89.75 0-162.78 73.02-162.78 162.78v333.7c0 89.76 73.03 162.78 162.78 162.78h586.02c89.75 0 162.78-73.02 162.78-162.78 0-22.48-18.22-40.7-40.7-40.7-22.47 0-40.69 18.22-40.69 40.7 0 44.88-36.51 81.39-81.39 81.39h-586.02c-44.88 0-81.39-36.51-81.39-81.39v-333.7c0-44.88 36.51-81.39 81.39-81.39h586.02c44.88 0 81.39 36.51 81.39 81.39v150.57c0 22.48 18.22 40.7 40.69 40.7zm-252.38-354.05H4595.4v-143.52c0-86.92 73.03-157.63 162.78-157.63 89.76 0 162.79 70.71 162.79 157.63v143.52z"/><circle class="fil0" cx="4682.97" cy="10495.52" r="40.7"/><circle class="fil0" cx="4530.37" cy="10495.52" r="40.7"/><circle class="fil0" cx="4835.58" cy="10495.52" r="40.7"/></g></g></svg>