<?xml version="1.0" encoding="UTF-8"?>
<!DOCTYPE svg PUBLIC "-//W3C//DTD SVG 1.0//EN" "http://www.w3.org/TR/2001/REC-SVG-20010904/DTD/svg10.dtd">
<!-- Creator: CorelDRAW 2019 (64-Bit) -->
<svg xmlns="http://www.w3.org/2000/svg" xml:space="preserve" width="95.2498mm" height="206.248mm" version="1.0" style="shape-rendering:geometricPrecision; text-rendering:geometricPrecision; image-rendering:optimizeQuality; fill-rule:evenodd; clip-rule:evenodd"
viewBox="0 0 9524.98 20624.78"
 xmlns:xlink="http://www.w3.org/1999/xlink"
 xmlns:xodm="http://www.corel.com/coreldraw/odm/2003">
 <defs>
  <style type="text/css">
   <![CDATA[
    .fil0 {fill:#222F3E}
   ]]>
  </style>
 </defs>
 <g id="Layer_x0020_1">
  <metadata id="CorelCorpID_0Corel-Layer"/>
  <g id="_1800104550384">
   <g>
    <g>
     <path class="fil0" d="M4026.46 5981.65l277.99 -278c7.65,-7.63 11.86,-17.84 11.86,-28.73 0,-10.89 -4.21,-21.09 -11.86,-28.74l-24.36 -24.35c-7.65,-7.66 -17.86,-11.87 -28.75,-11.87 -10.88,0 -21.09,4.21 -28.74,11.87l-330.98 330.98c-7.67,7.67 -11.88,17.92 -11.85,28.82 -0.03,10.95 4.17,21.19 11.85,28.86l330.68 330.66c7.64,7.66 17.85,11.87 28.74,11.87 10.89,0 21.09,-4.21 28.74,-11.87l24.36 -24.35c15.84,-15.84 15.84,-41.64 0,-57.48l-277.68 -277.67z"/>
    </g>
   </g>
   <g>
   </g>
   <g>
   </g>
   <g>
   </g>
   <g>
   </g>
   <g>
   </g>
   <g>
   </g>
   <g>
   </g>
   <g>
   </g>
   <g>
   </g>
   <g>
   </g>
   <g>
   </g>
   <g>
   </g>
   <g>
   </g>
   <g>
   </g>
   <g>
   </g>
  </g>
 </g>
</svg>
