<?xml version="1.0" encoding="UTF-8"?>
<!DOCTYPE svg PUBLIC "-//W3C//DTD SVG 1.1//EN" "http://www.w3.org/Graphics/SVG/1.1/DTD/svg11.dtd">
<!-- Creator: CorelDRAW 2019 (64-Bit) -->
<svg xmlns="http://www.w3.org/2000/svg" xml:space="preserve" width="95.2498mm" height="206.248mm" version="1.1" style="shape-rendering:geometricPrecision; text-rendering:geometricPrecision; image-rendering:optimizeQuality; fill-rule:evenodd; clip-rule:evenodd"
viewBox="0 0 9524.98 20624.78"
 xmlns:xlink="http://www.w3.org/1999/xlink"
 xmlns:xodm="http://www.corel.com/coreldraw/odm/2003">
 <defs>
  <style type="text/css">
   <![CDATA[
    .fil0 {fill:white}
   ]]>
  </style>
 </defs>
 <g id="Layer_x0020_1">
  <metadata id="CorelCorpID_0Corel-Layer"/>
  <g id="_2478520150336">
   <g>
    <g>
     <path class="fil0" d="M6059.2 10956l-384.01 -384c-137.14,-137.14 -370.29,-82.28 -425.14,96 -41.15,123.43 -178.29,192.01 -301.72,164.57 -274.29,-68.57 -644.57,-425.14 -713.14,-713.14 -41.15,-123.44 41.14,-260.58 164.57,-301.72 178.28,-54.86 233.14,-288 96,-425.15l-384 -384c-109.72,-96 -274.29,-96 -370.29,0l-260.58 260.57c-260.57,274.29 27.43,1001.15 672.01,1645.73 644.57,644.57 1371.43,946.29 1645.72,672l260.57 -260.57c96.01,-109.72 96.01,-274.29 0.01,-370.29z"/>
    </g>
   </g>
   <g>
   </g>
   <g>
   </g>
   <g>
   </g>
   <g>
   </g>
   <g>
   </g>
   <g>
   </g>
   <g>
   </g>
   <g>
   </g>
   <g>
   </g>
   <g>
   </g>
   <g>
   </g>
   <g>
   </g>
   <g>
   </g>
   <g>
   </g>
   <g>
   </g>
  </g>
 </g>
</svg>
