<svg xmlns="http://www.w3.org/2000/svg" width="359.999" height="779.52" version="1.0" viewBox="0 0 9524.98 20624.78" shape-rendering="geometricPrecision" text-rendering="geometricPrecision" image-rendering="optimizeQuality" fill-rule="evenodd" clip-rule="evenodd"><path d="M5961.5 9917.58v376.01c0 51.92-42.08 94-94.01 94h-61.81l-39.61 352.46c-5.4 48.03-46.08 83.51-93.3 83.52-3.51 0-7.03-.2-10.62-.6-51.59-5.79-88.71-52.33-82.91-103.9l48.98-435.96c5.35-47.56 45.56-83.52 93.42-83.52h51.87v-188.01H3743.03v188.01h1602.76c51.92 0 94.01 42.1 94.01 94 0 51.92-42.09 94-94.01 94H3901.77l92.83 774.41c11.31 94.43 91.56 165.63 186.67 165.63H5342.8c95.8 0 176.13-71.81 186.83-167.02 5.78-51.59 52.31-88.7 103.9-82.92 51.59 5.81 88.72 52.33 82.93 103.92-21.4 190.41-182.04 334.03-373.66 334.03H4181.27c-190.21 0-350.72-142.42-373.35-331.27l-95.5-796.78h-63.39c-51.93 0-94.01-42.08-94.01-94v-376.01c0-51.93 42.08-94.01 94.01-94.01h333.42l496.73-676.07c30.73-41.82 89.56-50.84 131.4-20.09 41.85 30.74 50.84 89.56 20.11 131.41l-414.94 564.75h1088.51l-414.96-564.75c-30.73-41.85-21.73-100.67 20.11-131.41 41.84-30.75 100.67-21.75 131.42 20.09l496.71 676.07h329.95c51.93 0 94.01 42.1 94.01 94.01zm-1297.23 752.02v376.02c0 51.92 42.08 94 94 94 51.9 0 94-42.08 94-94v-376.02c0-51.92-42.1-94-94-94-51.92 0-94 42.08-94 94zm376.01 0v376.02c0 51.92 42.08 94 94 94 51.91 0 94.01-42.08 94.01-94v-376.02c0-51.92-42.1-94-94.01-94-51.92 0-94 42.08-94 94zm-752.03 0v376.02c0 51.92 42.08 94 94.01 94 51.9 0 94-42.08 94-94v-376.02c0-51.92-42.1-94-94-94-51.93 0-94.01 42.08-94.01 94zm0 0z" fill="#222f3e"/></svg>