<?xml version="1.0" encoding="UTF-8"?>
<!DOCTYPE svg PUBLIC "-//W3C//DTD SVG 1.1//EN" "http://www.w3.org/Graphics/SVG/1.1/DTD/svg11.dtd">
<!-- Creator: CorelDRAW 2019 (64-Bit) -->
<svg xmlns="http://www.w3.org/2000/svg" xml:space="preserve" width="95.2498mm" height="206.248mm" version="1.1" style="shape-rendering:geometricPrecision; text-rendering:geometricPrecision; image-rendering:optimizeQuality; fill-rule:evenodd; clip-rule:evenodd"
viewBox="0 0 9524.98 20624.78"
 xmlns:xlink="http://www.w3.org/1999/xlink"
 xmlns:xodm="http://www.corel.com/coreldraw/odm/2003">
 <defs>
  <style type="text/css">
   <![CDATA[
    .fil0 {fill:#222F3E}
   ]]>
  </style>
 </defs>
 <g id="Layer_x0020_1">
  <metadata id="CorelCorpID_0Corel-Layer"/>
  <g id="_1991905329152">
   <g>
    <g>
     <path class="fil0" d="M2393.42 14304.98l-1411.13 0c-129.19,0 -233.46,104.27 -233.46,233.46l0 933.83c0,129.18 104.27,233.46 233.46,233.46l77.82 0 0 233.46c0,56.22 58.21,96.94 115.17,68.48 1.56,-1.55 4.68,-1.55 6.23,-3.11 428.09,-287.08 332.15,-223.07 428.01,-286.38 12.45,-7.78 26.45,-12.45 42.02,-12.45l741.88 0c129.18,0 233.46,-104.28 233.46,-233.46l0 -933.83c0,-129.19 -104.28,-233.46 -233.46,-233.46zm-622.56 933.83l-632.93 0c-102.59,0 -103,-155.64 0,-155.64l632.93 0c102.58,0 103,155.64 0,155.64zm466.92 -311.28l-1099.85 0c-102.59,0 -103,-155.63 0,-155.63l1099.85 0c102.58,0 103,155.63 0,155.63z"/>
    </g>
   </g>
   <g>
    <g>
     <path class="fil0" d="M3171.61 14927.53l-389.1 0 0 544.74c0,214.78 -174.31,389.1 -389.09,389.1l-718.54 0 -147.86 98.05 0 135.41c0,129.17 104.28,233.46 233.46,233.46l765.22 0 446.69 298.82c60.97,33.85 121.4,-7.32 121.4,-65.37l0 -233.46 77.82 0.01c129.19,0 233.46,-104.29 233.46,-233.46l0 -933.84c0,-129.18 -104.27,-233.46 -233.46,-233.46z"/>
    </g>
   </g>
   <g>
   </g>
   <g>
   </g>
   <g>
   </g>
   <g>
   </g>
   <g>
   </g>
   <g>
   </g>
   <g>
   </g>
   <g>
   </g>
   <g>
   </g>
   <g>
   </g>
   <g>
   </g>
   <g>
   </g>
   <g>
   </g>
   <g>
   </g>
   <g>
   </g>
  </g>
 </g>
</svg>
