<svg xmlns="http://www.w3.org/2000/svg" width="359.999" height="779.52" version="1.0" viewBox="0 0 9524.98 20624.78" shape-rendering="geometricPrecision" text-rendering="geometricPrecision" image-rendering="optimizeQuality" fill-rule="evenodd" clip-rule="evenodd"><path d="M4574.76 10440.8c-16.25-3.79-49.92-39.8-64.06-50.81l-107.56-92.1c-48.4-46.09-106.16-100.74-168.38-54.87-17.89 13.19-74.95 84.79-94.18 105.48l-26.15 31.28c-5.63 6.69-8.17 9-13.69 16.4-16.36 21.95-15.55 36.85-15.55 61.03 0 30.68 29.4 57.76 48.07 72.27 31.22 24.24 96.17 84.68 129.31 111.38l48.94 41.31c6.82 6.35 9.37 7.96 16.28 13.81l227.2 194c29.46 19.72 60.06 21.16 90.94 4.9 29.86-15.72 58.28-61.76 81.39-88.19 64-73.22 143.3-179.81 205.03-248.99 43.65-48.92 105.99-130.25 153.02-186.12l152.82-186.33c29.58-37.89 163.28-194.97 178.51-218.07 26.16-39.67 16.34-89.39-22.23-121.82l-114.45-93.41c-21.48-17.39-36.58-33.2-73.46-33.2-24.45 0-45.23 11.33-58.18 23.86-8.67 8.38-11.71 12.38-19.26 21.77l-96.45 116.89c-71.43 90.34-160.79 191.54-229.36 279.37-6.69 8.56-11.65 14.56-18.56 22.46l-134.27 163.85c-19.02 23.61-61.38 72.44-75.72 93.85z" fill="#ff9f43"/></svg>