<?xml version="1.0" encoding="UTF-8"?>
<!DOCTYPE svg PUBLIC "-//W3C//DTD SVG 1.0//EN" "http://www.w3.org/TR/2001/REC-SVG-20010904/DTD/svg10.dtd">
<!-- Creator: CorelDRAW 2019 (64-Bit) -->
<svg xmlns="http://www.w3.org/2000/svg" xml:space="preserve" width="95.2498mm" height="206.248mm" version="1.0" style="shape-rendering:geometricPrecision; text-rendering:geometricPrecision; image-rendering:optimizeQuality; fill-rule:evenodd; clip-rule:evenodd"
viewBox="0 0 9524.98 20624.78"
 xmlns:xlink="http://www.w3.org/1999/xlink"
 xmlns:xodm="http://www.corel.com/coreldraw/odm/2003">
 <defs>
  <style type="text/css">
   <![CDATA[
    .fil0 {fill:#222F3E}
   ]]>
  </style>
 </defs>
 <g id="Layer_x0020_1">
  <metadata id="CorelCorpID_0Corel-Layer"/>
  <path class="fil0" d="M2716.64 5577.88l186.16 -186.19c5.13,-5.11 7.95,-11.95 7.95,-19.24 0,-7.3 -2.82,-14.13 -7.95,-19.25l-16.31 -16.31c-5.12,-5.13 -11.96,-7.95 -19.25,-7.95 -7.29,0 -14.12,2.82 -19.25,7.95l-180.47 180.49 -180.47 -180.49c-5.13,-5.13 -11.96,-7.95 -19.25,-7.95 -7.29,0 -14.13,2.82 -19.25,7.95l-16.31 16.31c-5.13,5.12 -7.95,11.95 -7.95,19.25 0,7.29 2.82,14.13 7.95,19.24l186.16 186.19 -185.95 185.97c-10.62,10.61 -10.62,27.89 0,38.5l16.3 16.31c5.13,5.13 11.96,7.95 19.25,7.95 7.3,0 14.13,-2.82 19.25,-7.95l180.27 -180.28 180.27 180.28c5.12,5.13 11.95,7.95 19.25,7.95 7.29,0 14.12,-2.82 19.25,-7.95l16.3 -16.31c10.62,-10.61 10.62,-27.89 0,-38.5l-185.95 -185.97z"/>
 </g>
</svg>
