<?xml version="1.0" encoding="UTF-8"?>
<!DOCTYPE svg PUBLIC "-//W3C//DTD SVG 1.1//EN" "http://www.w3.org/Graphics/SVG/1.1/DTD/svg11.dtd">
<!-- Creator: CorelDRAW 2019 (64-Bit) -->
<svg xmlns="http://www.w3.org/2000/svg" xml:space="preserve" width="95.2498mm" height="206.248mm" version="1.1" style="shape-rendering:geometricPrecision; text-rendering:geometricPrecision; image-rendering:optimizeQuality; fill-rule:evenodd; clip-rule:evenodd"
viewBox="0 0 9524.98 20624.78"
 xmlns:xlink="http://www.w3.org/1999/xlink"
 xmlns:xodm="http://www.corel.com/coreldraw/odm/2003">
 <defs>
  <style type="text/css">
   <![CDATA[
    .fil0 {fill:#222F3E}
   ]]>
  </style>
 </defs>
 <g id="Layer_x0020_1">
  <metadata id="CorelCorpID_0Corel-Layer"/>
  <g id="_1991802043376">
   <path class="fil0" d="M2678.77 2046.77l391.96 0c64.91,0 117.59,-52.68 117.59,-117.59l0 -391.97c0,-64.91 -52.68,-117.59 -117.59,-117.59l-391.96 0c-64.91,0 -117.59,52.68 -117.59,117.59l0 391.96c0,64.91 52.68,117.59 117.59,117.59l0 0.01zm0 0z"/>
   <path class="fil0" d="M2678.77 2987.5l391.96 0c64.91,0 117.59,-52.68 117.59,-117.59l0 -391.97c0,-64.91 -52.68,-117.59 -117.59,-117.59l-391.96 0c-64.91,0 -117.59,52.68 -117.59,117.59l0 391.97c0,64.91 52.68,117.59 117.59,117.59zm0 0z"/>
   <path class="fil0" d="M3776.28 2046.77l392 0c64.91,0 117.59,-52.68 117.59,-117.59l0 -391.97c0,-64.91 -52.68,-117.59 -117.59,-117.59l-392 0c-64.91,0 -117.59,52.68 -117.59,117.59l0 391.96c0,64.91 52.68,117.59 117.59,117.59l0 0.01zm0 0z"/>
   <path class="fil0" d="M3776.28 2987.5l392 0c64.91,0 117.59,-52.68 117.59,-117.59l0 -391.97c0,-64.91 -52.68,-117.59 -117.59,-117.59l-392 0c-64.91,0 -117.59,52.68 -117.59,117.59l0 391.97c0,64.91 52.68,117.59 117.59,117.59zm0 0z"/>
   <path class="fil0" d="M4873.83 2046.77l391.96 0c64.91,0 117.59,-52.68 117.59,-117.59l0 -391.97c0,-64.91 -52.68,-117.59 -117.59,-117.59l-391.96 0c-64.91,0 -117.59,52.68 -117.59,117.59l0 391.96c0,64.91 52.68,117.59 117.59,117.59l0 0.01zm0 0z"/>
   <path class="fil0" d="M5383.38 165.3l-156.78 0 0 -313.59c0,-86.53 -70.25,-156.78 -156.8,-156.78l-156.79 0c-86.55,0 -156.78,70.25 -156.78,156.78l0 313.59 -1567.91 0 0 -313.59c0,-86.53 -70.22,-156.78 -156.78,-156.78l-156.77 0c-86.56,0 -156.81,70.25 -156.81,156.78l0 313.59 -156.78 0c-259.33,0 -470.37,211.04 -470.37,470.36l0 2351.84c0,259.33 211.04,470.37 470.37,470.37l2822.2 0c259.33,0 470.37,-211.04 470.37,-470.37l0 -2351.84c0,-259.33 -211.04,-470.37 -470.37,-470.37l0 0.01zm156.78 2822.2c0,86.38 -70.39,156.78 -156.78,156.78l-2822.2 0c-86.39,0 -156.78,-70.39 -156.78,-156.78l0 -1718.4 3135.76 0 0 1718.4zm0 0z"/>
  </g>
 </g>
</svg>
