<svg xmlns="http://www.w3.org/2000/svg" width="359.999" height="779.52" version="1.0" viewBox="0 0 9524.98 20624.78" shape-rendering="geometricPrecision" text-rendering="geometricPrecision" image-rendering="optimizeQuality" fill-rule="evenodd" clip-rule="evenodd"><defs><style>.fil0{fill:#222f3e}</style></defs><g id="Layer_x0020_1"><g id="_1800632017904"><path class="fil0" d="M5698.59 10910.78h-227.64c-37.02-123.18-150.2-213.71-285.26-213.71-135.07 0-248.16 90.53-285.26 213.71h-1082.5c-47.18 0-85.48 38.3-85.48 85.49s38.3 85.48 85.48 85.48h1082.49c37.02 123.18 150.2 213.71 285.26 213.71 135.07 0 248.17-90.53 285.26-213.71h227.65c47.27 0 85.48-38.29 85.48-85.48 0-47.19-38.2-85.49-85.48-85.49zm-512.9 213.71c-70.7 0-128.23-57.53-128.23-128.22 0-70.7 57.53-128.23 128.23-128.23 70.69 0 128.22 57.53 128.22 128.23 0 70.69-57.53 128.22-128.22 128.22zM5698.59 9543.03h-227.64c-37.1-123.18-150.2-213.71-285.26-213.71-135.07 0-248.16 90.53-285.27 213.71H3817.93c-47.18 0-85.48 38.3-85.48 85.48 0 47.19 38.3 85.49 85.48 85.49h1082.49c37.11 123.18 150.2 213.71 285.27 213.71 135.06 0 248.16-90.53 285.26-213.71h227.64c47.28 0 85.49-38.29 85.49-85.48 0-47.19-38.21-85.49-85.49-85.49zm-512.9 213.71c-70.7 0-128.23-57.53-128.23-128.23 0-70.69 57.53-128.22 128.23-128.22 70.69 0 128.22 57.53 128.22 128.22 0 70.7-57.53 128.23-128.22 128.23zM5698.59 10226.91H4616.1c-37.1-123.19-150.19-213.71-285.26-213.71-135.06 0-248.16 90.52-285.26 213.71h-227.65c-47.18 0-85.48 38.29-85.48 85.48 0 47.19 38.3 85.48 85.48 85.48h227.65c37.1 123.19 150.2 213.71 285.26 213.71s248.16-90.52 285.26-213.71h1082.49c47.27 0 85.48-38.29 85.48-85.48.01-47.19-38.2-85.48-85.48-85.48zm-1367.75 213.71c-70.7 0-128.23-57.53-128.23-128.23 0-70.7 57.53-128.23 128.23-128.23 70.7 0 128.23 57.53 128.23 128.23 0 70.7-57.53 128.23-128.23 128.23z"/></g></g></svg>