<?xml version="1.0" encoding="UTF-8"?>
<!DOCTYPE svg PUBLIC "-//W3C//DTD SVG 1.1//EN" "http://www.w3.org/Graphics/SVG/1.1/DTD/svg11.dtd">
<!-- Creator: CorelDRAW 2019 (64-Bit) -->
<svg xmlns="http://www.w3.org/2000/svg" xml:space="preserve" width="95.2498mm" height="206.248mm" version="1.1" style="shape-rendering:geometricPrecision; text-rendering:geometricPrecision; image-rendering:optimizeQuality; fill-rule:evenodd; clip-rule:evenodd"
viewBox="0 0 9524.98 20624.78"
 xmlns:xlink="http://www.w3.org/1999/xlink"
 xmlns:xodm="http://www.corel.com/coreldraw/odm/2003">
 <defs>
  <style type="text/css">
   <![CDATA[
    .fil0 {fill:black}
   ]]>
  </style>
 </defs>
 <g id="Layer_x0020_1">
  <metadata id="CorelCorpID_0Corel-Layer"/>
  <g id="_1991838687136">
   <g>
    <g>
     <g>
      <path class="fil0" d="M7735.61 2369.8l-188.15 0 0 -658.51 -188.15 0 0 658.51 -188.15 0 0 -658.51 -188.15 0 0 658.51c0,199.91 156.16,361.72 352.78,373.95l0 849.02 235.18 0 0 -849.02c196.62,-12.23 352.78,-174.04 352.78,-373.95l0 -658.51 -188.14 0 0 658.51z"/>
      <path class="fil0" d="M8205.98 2087.58l0 752.6 235.18 0 0 752.59 235.19 0 0 -1881.48c-259.65,0 -470.37,210.72 -470.37,376.29z"/>
     </g>
    </g>
   </g>
   <g>
   </g>
   <g>
   </g>
   <g>
   </g>
   <g>
   </g>
   <g>
   </g>
   <g>
   </g>
   <g>
   </g>
   <g>
   </g>
   <g>
   </g>
   <g>
   </g>
   <g>
   </g>
   <g>
   </g>
   <g>
   </g>
   <g>
   </g>
   <g>
   </g>
  </g>
 </g>
</svg>
