<svg xmlns="http://www.w3.org/2000/svg" width="359.999" height="779.52" version="1.0" viewBox="0 0 9524.98 20624.78" shape-rendering="geometricPrecision" text-rendering="geometricPrecision" image-rendering="optimizeQuality" fill-rule="evenodd" clip-rule="evenodd"><defs><style>.fil0{fill:#b5b5b5}</style></defs><g id="Layer_x0020_1"><g id="_1800038491456"><path class="fil0" d="M4676.38 9393.52c-730.78 62.37-1096.58 777.48-1144.8 1460.7-7.37 104.35-9.5 220.59-2.11 324.86 9.87 139.21 129.71 110.72 133.59-10.19 8.66-270.71-23.33-301.52 41.53-615.64 168.06-813.76 918.3-1241.43 1477.36-834.73 115.71 84.17 221.86 203.77 292.46 355.38 135 289.91 203.37 837.68-11.81 1053.18-143.89 144.12-337.52 97.5-412.67-81.8-72.61-173.21 46.16-339.48-43.77-563.4-180.94-450.5-889.05-328.33-796.71 665.28 53.45 575.07 461.64 915.25 554.85 911.49 42.37-1.71 66.62-45.69 67.74-90.93 1.42-57.16-27.04-70.32-63.62-94.07l-134.49-108.79c-106.45-113.24-158.47-186.82-222.52-354.47-114.18-298.82-131.3-896.23 167.83-994.32 203.7-66.8 339.97 120.57 332.47 306.96-4.5 112.17-34.12 168.16-14.85 292.78 14.79 95.7 48.75 170.1 101.1 233.05 99.46 119.62 276.12 191.77 457.94 74.03 125.91-81.52 213.49-211.28 249.59-408.76 96.62-528.56-71.09-1129.59-515.19-1396.08-133.97-80.4-322.77-140.84-513.92-124.53z"/><path class="fil0" d="M4651.61 9816.47c-687.33 72.57-881.44 973.44-753.68 1571.72 148.05 693.32 289.26 490.05 279.83 388.47-4.46-48.01-322.81-612.06-113.62-1258.44 251.47-777.04 1169.25-672.03 1194.39 123.66 2.17 69.1-71.43 396.92 70.91 312.42 92.68-55.02 66.47-461.51 9.98-633.85-87.76-267.71-332.71-541.47-687.81-503.98z"/><path class="fil0" d="M3697.84 9662.18c63.06 13.15 62.19 7.04 144.08-84.88 111.86-125.58 266.33-242.34 431.55-317.98 261.75-119.82 539.06-142.8 826.76-46.05 372.3 125.19 601.8 423.29 728.72 759.37 20.03 53.03 30.26 160.23 99.6 154.94 86.22-6.57 65.38-119.09 45.5-178.73-155.58-466.38-495.39-870.88-1031.51-952.66-364.53-55.62-691.52 62.03-953.73 252.19-49.26 35.73-92.44 78.03-137.32 115.63-50.74 42.5-80.43 84.81-124.74 128.52-53.57 52.84-73.57 98.37-28.91 169.65z"/><path class="fil0" d="M4740.54 8570c-142.1 10.73-366.68 57.49-472.99 116.77-78.64 43.87-74.75 168.99 10.19 165.06 55.82-2.58 645-327.11 1255.66 130.56l158.15 135.59c20.6 20.46 47.36 62.61 90.1 50.87 27.18-7.47 111.08-80.86 2.7-184.21-265.2-252.91-588.62-449.01-1043.81-414.64zM4613.78 10660.05c-112.42 49.01-86.67 543.53 39.62 771.64 63.5 114.7 124.73 189.55 223.91 251.97 70.36 44.27 280.17 131.15 390.19 89.14 53.66-20.5 69.94-129.71 13.05-158.16-16.94-8.47-161.47-16.67-211.06-31.55-127.61-38.3-211.8-113.34-271.09-205.19-254.52-394.24 5.52-800.73-184.62-717.85z"/></g></g></svg>