<?xml version="1.0" encoding="UTF-8"?>
<!DOCTYPE svg PUBLIC "-//W3C//DTD SVG 1.1//EN" "http://www.w3.org/Graphics/SVG/1.1/DTD/svg11.dtd">
<!-- Creator: CorelDRAW 2019 (64-Bit) -->
<svg xmlns="http://www.w3.org/2000/svg" xml:space="preserve" width="95.2498mm" height="206.248mm" version="1.1" style="shape-rendering:geometricPrecision; text-rendering:geometricPrecision; image-rendering:optimizeQuality; fill-rule:evenodd; clip-rule:evenodd"
viewBox="0 0 9524.98 20624.78"
 xmlns:xlink="http://www.w3.org/1999/xlink"
 xmlns:xodm="http://www.corel.com/coreldraw/odm/2003">
 <defs>
  <style type="text/css">
   <![CDATA[
    .fil0 {fill:#222F3E}
   ]]>
  </style>
 </defs>
 <g id="Layer_x0020_1">
  <metadata id="CorelCorpID_0Corel-Layer"/>
  <g id="_1991905368384">
   <g>
    <g>
     <path class="fil0" d="M5895.78 4253.82c-313.34,0 -568.26,270.28 -568.26,602.51 0,332.22 254.92,602.51 568.26,602.51 313.35,0 568.27,-270.29 568.27,-602.51 0,-332.23 -254.92,-602.51 -568.27,-602.51z"/>
    </g>
   </g>
   <g>
    <g>
     <path class="fil0" d="M7187.75 4340.04c-1.29,0 -2.59,0 -3.87,0.01 -131.5,1.09 -254.33,56.61 -345.86,156.35 -89.92,97.98 -138.81,227.24 -137.69,363.95 1.13,136.72 52.16,265.15 143.68,361.64 92.24,97.24 214.43,150.63 344.47,150.63 1.31,0 2.62,0 3.93,-0.01 131.5,-1.09 254.33,-56.62 345.86,-156.35 89.92,-97.98 138.82,-227.23 137.69,-363.96 -2.34,-283.32 -220.97,-512.26 -488.21,-512.26z"/>
    </g>
   </g>
   <g>
    <g>
     <path class="fil0" d="M7211.72 5471.27l-47.19 0c-219.75,0 -420.29,83.54 -571.7,220.48 37.88,29.06 73.94,60.75 108.11,94.92 100.82,100.82 179.99,218.29 235.32,349.15 49.86,117.85 78.32,242.01 84.95,369.89l1043.38 0 0 -181.63c0,-470.22 -382.59,-852.81 -852.87,-852.81z"/>
    </g>
   </g>
   <g>
    <g>
     <path class="fil0" d="M6838.43 6505.71c-17.21,-277.21 -157.73,-521.05 -367.46,-677.32 -152.56,-113.71 -341.79,-181.03 -546.77,-181.03l-56.8 0c-505.97,0.01 -916.11,410.14 -916.11,916.12l0 108.72 1888.96 0 0 -108.72c0,-19.4 -0.61,-38.68 -1.82,-57.77z"/>
    </g>
   </g>
   <g>
   </g>
   <g>
   </g>
   <g>
   </g>
   <g>
   </g>
   <g>
   </g>
   <g>
   </g>
   <g>
   </g>
   <g>
   </g>
   <g>
   </g>
   <g>
   </g>
   <g>
   </g>
   <g>
   </g>
   <g>
   </g>
   <g>
   </g>
   <g>
   </g>
  </g>
 </g>
</svg>
