<svg xmlns="http://www.w3.org/2000/svg" width="359.999" height="779.52" version="1.0" viewBox="0 0 9524.98 20624.78" shape-rendering="geometricPrecision" text-rendering="geometricPrecision" image-rendering="optimizeQuality" fill-rule="evenodd" clip-rule="evenodd"><defs><style>.fil2{fill:#fff}</style></defs><g id="Layer_x0020_1"><g id="_1800092326320"><rect x="4144.57" y="9698.7" width="1227.38" height="1227.38" rx="162.58" ry="162.58" fill="#ff9f43"/><path d="M4610.21 10688.75l562.19-562.19 199.55 199.54v437.4c0 89.42-73.16 162.58-162.58 162.58h-361.83l-237.33-237.33z" fill="#ff912b"/><path class="fil2" d="M5033.04 10560.44l3.68-191.31.01-.42c90.1-.1 163.69-73.11 163.69-163.87 0-90.5-73.37-163.86-163.87-163.86-47.09 0-89.53 19.87-119.42 51.67-24.02-60.64-83.2-103.53-152.39-103.53-82.09 0-150.08 60.36-162.01 139.13-29.98-21.78-67.37-34.72-107.91-34.72-98.7 0-178.72 76.61-178.72 171.12s91.31 182.3 178.72 171.13c87.41-11.18 127.69-35.58 163.83-89.84-18.81 67.91-46.86 91.24-128.13 119.33l53.05 149.01c5.76 16.16 21.06 26.42 37.37 26.66 123.69-13.52 247.65-28 371.45-41.64 21.94.36 40.23-16.92 40.65-38.86z"/><path d="M5073.43 10365.34l-295.98 29.39s218.8-4.96 255.59 166.51l3.68-191.31.01-.42c12.6-.01 24.89-1.46 36.7-4.17z" fill="#ffe6b0"/><rect class="fil2" transform="matrix(.20154 -.02226 .02226 .20154 4608.07 10663.8)" width="2081.39" height="229.31" rx="120" ry="120"/></g></g></svg>