<?xml version="1.0" encoding="UTF-8"?>
<!DOCTYPE svg PUBLIC "-//W3C//DTD SVG 1.0//EN" "http://www.w3.org/TR/2001/REC-SVG-20010904/DTD/svg10.dtd">
<!-- Creator: CorelDRAW 2019 (64-Bit) -->
<svg xmlns="http://www.w3.org/2000/svg" xml:space="preserve" width="95.2498mm" height="206.248mm" version="1.0" style="shape-rendering:geometricPrecision; text-rendering:geometricPrecision; image-rendering:optimizeQuality; fill-rule:evenodd; clip-rule:evenodd"
viewBox="0 0 9524.98 20624.78"
 xmlns:xlink="http://www.w3.org/1999/xlink"
 xmlns:xodm="http://www.corel.com/coreldraw/odm/2003">
 <defs>
  <style type="text/css">
   <![CDATA[
    .fil0 {fill:#FF9F43}
   ]]>
  </style>
 </defs>
 <g id="Layer_x0020_1">
  <metadata id="CorelCorpID_0Corel-Layer"/>
  <g id="_1836095674496">
   <g>
    <g>
     <path class="fil0" d="M1897.18 4737.05c-121.74,0 -220.79,99.05 -220.79,220.79 0,48.17 15.22,93.95 44.05,132.36l163.13 219.71c0.41,0.53 1.03,0.74 1.48,1.21 8.16,8.73 19.92,6.54 25.73,-1.21 46.98,-62.68 133.08,-179.74 166.19,-223.9 0,0 0.01,-0.04 0.02,-0.06l0.21 -0.27c26.67,-37.48 40.77,-81.68 40.77,-127.84 0,-121.74 -99.05,-220.79 -220.79,-220.79zm0 339.9c-65.55,0 -119.11,-53.57 -119.11,-119.11 0,-65.55 53.56,-119.12 119.11,-119.12 65.55,0 119.11,53.57 119.11,119.12 0,65.54 -53.56,119.11 -119.11,119.11z"/>
    </g>
   </g>
   <g>
   </g>
   <g>
   </g>
   <g>
   </g>
   <g>
   </g>
   <g>
   </g>
   <g>
   </g>
   <g>
   </g>
   <g>
   </g>
   <g>
   </g>
   <g>
   </g>
   <g>
   </g>
   <g>
   </g>
   <g>
   </g>
   <g>
   </g>
   <g>
   </g>
  </g>
 </g>
</svg>
