<svg xmlns="http://www.w3.org/2000/svg" width="359.999" height="779.52" version="1.0" viewBox="0 0 9524.98 20624.78" shape-rendering="geometricPrecision" text-rendering="geometricPrecision" image-rendering="optimizeQuality" fill-rule="evenodd" clip-rule="evenodd"><path d="M4411.58 10201.41c0 38.67 1.91 60.73 16.43 95.97 9.34 22.67 20.35 40.9 33.67 59.77 6.18 8.77 12.85 17.83 20.02 26.02 14.72 16.85 48.79 53.79 62.99 65.66 19.54 16.33 42.22 39.07 61.7 54.77l37.92 32.5c3.03 2.44 3.61 2.68 6.63 5.56l37.24 31.82c3.02 2.88 3.6 3.11 6.63 5.56 35.21 28.36 54.08 62.12 95.02 27.7 8.79-7.39 16.1-13.73 24.91-21.14l94.04-80.65c2.63-2.11 3.72-3.7 6.24-5.94l36.69-32.38c5.53-4.41 7.73-6.75 12.7-11.67l63.67-63.63c39.64-44.84 76.86-107.78 76.86-169.61 0-38.81-2.06-63.15-16.81-98.3-9.54-22.72-29.75-54.83-48.59-70.58l-13.32-11.05c-28.41-21.22-67.31-38.1-106.81-38.1-44.66 0-66.82 5.48-102.86 27.15-14.97 9-53.65 43.17-56.94 55.46h-2.7c-3.29-12.29-42.27-46.64-56.94-55.46-11.67-7.02-23.1-13.27-37.32-18.21-44.97-15.62-100.36-10.59-141.38 10.01-17.88 8.98-28.15 16.47-42.93 28.85-11.61 9.72-24.21 26.6-32.64 39.14-19.15 28.51-34.12 73.36-34.12 110.78z" fill="#ff9f43"/></svg>