<svg xmlns="http://www.w3.org/2000/svg" width="359.999" height="779.52" version="1.0" viewBox="0 0 9524.98 20624.78" shape-rendering="geometricPrecision" text-rendering="geometricPrecision" image-rendering="optimizeQuality" fill-rule="evenodd" clip-rule="evenodd"><path d="M5302.66 10237.54c-.03-.02-.05-.05-.08-.07l-469.41-469.39c-20-20.02-46.61-31.05-74.9-31.05-28.3 0-54.9 11.02-74.92 31.04l-469.16 469.15c-.15.16-.31.33-.47.48-41.09 41.33-41.02 108.38.2 149.59 18.83 18.85 43.71 29.76 70.3 30.9 1.08.1 2.17.16 3.26.16h18.71v345.44c0 68.36 55.62 123.97 123.99 123.97h183.65c18.61 0 33.71-15.09 33.71-33.71v-270.83c0-31.19 25.38-56.56 56.57-56.56h108.32c31.19 0 56.56 25.37 56.56 56.56v270.83c0 18.62 15.09 33.71 33.72 33.71h183.64c68.38 0 123.99-55.62 123.99-123.97v-345.44h17.35c28.29 0 54.89-11.02 74.92-31.04 41.26-41.29 41.28-108.45.05-149.77zm0 0z" fill="#ff9f43"/></svg>