<svg xmlns="http://www.w3.org/2000/svg" width="359.999" height="779.52" version="1.0" viewBox="0 0 9524.98 20624.78" shape-rendering="geometricPrecision" text-rendering="geometricPrecision" image-rendering="optimizeQuality" fill-rule="evenodd" clip-rule="evenodd"><defs><style>.fil0{fill:#ff9f43}</style></defs><g id="Layer_x0020_1"><g id="_1800063357008"><path class="fil0" d="M4415.46 10775.22v-869.57c0-23.58 18.59-22.29 27.87-22.29 0 18.03 1.4 29.7 10.33 39.83 29.51 33.47 81.64 24.17 81.64-39.83h86.4c0 82.13 91.98 70.15 91.98 11.14v-11.14h86.39c0 84.18 91.98 65.88 91.98 16.72v-16.72h86.4c0 82.13 91.97 70.15 91.97 11.14v-11.14c13.42 0 27.87-.92 27.87 19.5v877.93c0 16.61-11.25 22.3-27.87 22.3h-627.09c-19.92 0-27.87-7.95-27.87-27.87zm27.87-983.84c-36.24 0-61.58 10.04-80.19 28.51-18.09 17.96-36.87 39.89-36.87 74.61v894.65c0 54.29 54.34 103.12 97.55 103.12h663.32c57.72 0 103.12-52.8 103.12-125.41V9916.8c0-44.42-9.05-62.18-28.98-88.07-18.72-24.32-53.63-37.35-90.86-37.35 0-78.04-65.46-62.84-81.42-42.4-8.16 10.46-10.55 24.4-10.55 42.4h-86.4c0-33.06-8.8-58.53-47.38-58.53-32.72 0-44.6 25.19-44.6 58.53h-86.39c0-77.26-65.06-63.36-81.42-42.4-8.16 10.46-10.56 24.4-10.56 42.4h-86.4c0-78.04-65.46-62.84-81.41-42.4-8.17 10.46-10.56 24.4-10.56 42.4z"/><path class="fil0" d="M4504.65 10607.99c0 29.98 20.37 47.39 44.59 47.39h415.27c61.61 0 61.77-91.98-2.78-91.98H4557.6c-28.85 0-52.95 14.93-52.95 44.59zM4504.65 10365.52c0 33.17 15.65 52.95 52.95 52.95h398.55c75.56 0 67.33-91.97 8.36-91.97h-415.27c-21.79 0-44.59 18.49-44.59 39.02zM4504.65 10128.62c0 30.83 18.8 50.16 39.01 50.16h423.64c57.24 0 58.41-89.18 0-89.18h-423.64c-17.4 0-39.01 21.61-39.01 39.02z"/></g></g></svg>