<svg xmlns="http://www.w3.org/2000/svg" width="359.999" height="779.52" version="1.0" viewBox="0 0 9524.98 20624.78" shape-rendering="geometricPrecision" text-rendering="geometricPrecision" image-rendering="optimizeQuality" fill-rule="evenodd" clip-rule="evenodd"><defs><style>.fil0{fill:#ff9f43}</style></defs><g id="Layer_x0020_1"><g id="_1799709618432"><path class="fil0" d="M4747.91 10282.37c108.6 0 202.63-38.95 279.48-115.8 76.83-76.84 115.79-170.86 115.79-279.47 0-108.58-38.95-202.61-115.8-279.48-76.85-76.82-170.88-115.78-279.47-115.78-108.62 0-202.64 38.96-279.48 115.8-76.83 76.83-115.8 170.87-115.8 279.46 0 108.61 38.97 202.64 115.8 279.49 76.87 76.82 170.9 115.79 279.48 115.79v-.01zm-211.47-606.74c58.96-58.96 128.13-87.61 211.47-87.61 83.32 0 152.5 28.65 211.47 87.61 58.96 58.98 87.63 128.15 87.63 211.47 0 83.33-28.67 152.5-87.63 211.47-58.97 58.97-128.15 87.63-211.47 87.63s-152.48-28.67-211.47-87.63c-58.97-58.96-87.64-128.14-87.64-211.47 0-83.32 28.67-152.49 87.64-211.47zm0 0zM5439.54 10753.78c-2.22-31.98-6.7-66.86-13.3-103.7-6.66-37.11-15.24-72.19-25.51-104.26-10.61-33.14-25.03-65.87-42.87-97.23-18.49-32.56-40.23-60.9-64.62-84.23-25.5-24.4-56.73-44.02-92.84-58.33-35.98-14.24-75.86-21.45-118.52-21.45-16.75 0-32.95 6.87-64.24 27.25-19.26 12.55-41.78 27.08-66.93 43.14-21.49 13.7-50.62 26.53-86.59 38.15-35.09 11.36-70.73 17.12-105.91 17.12-35.16 0-70.79-5.76-105.91-17.12-35.93-11.6-65.07-24.44-86.53-38.14-24.9-15.91-47.44-30.43-66.99-43.17-31.26-20.37-47.46-27.24-64.21-27.24-42.68 0-82.54 7.22-118.51 21.47-36.09 14.29-67.33 33.91-92.86 58.33-24.39 23.34-46.12 51.68-64.6 84.22-17.82 31.36-32.24 64.08-42.86 97.25-10.26 32.06-18.83 67.13-25.49 104.24-6.62 36.79-11.09 71.68-13.3 103.74-2.18 31.34-3.28 63.95-3.28 96.91 0 85.66 27.23 155.02 80.93 206.16 53.04 50.47 123.2 76.07 208.56 76.07l790.2-.01c85.33 0 155.5-25.59 208.55-76.06 53.71-51.11 80.94-120.48 80.94-206.18-.01-33.06-1.12-65.68-3.32-96.93h.01zm-143.94 233.43c-35.05 33.36-81.57 49.57-142.25 49.57h-790.19c-60.69 0-107.22-16.21-142.25-49.55-34.37-32.72-51.07-77.38-51.07-136.51 0-30.75 1.01-61.11 3.04-90.26 1.98-28.6 6.02-60.01 12.02-93.39 5.92-32.97 13.46-63.91 22.43-91.91 8.6-26.86 20.33-53.45 34.88-79.07 13.88-24.42 29.86-45.36 47.49-62.24 16.49-15.79 37.27-28.71 61.76-38.4 22.65-8.97 48.11-13.88 75.74-14.62 3.37 1.79 9.37 5.21 19.08 11.55 19.77 12.88 42.56 27.58 67.75 43.67 28.4 18.11 64.99 34.46 108.7 48.57 44.68 14.45 90.26 21.79 135.49 21.79 45.24 0 90.83-7.34 135.49-21.78 43.75-14.13 80.32-30.47 108.76-48.6 25.78-16.48 47.92-30.75 67.7-43.65 9.71-6.32 15.71-9.75 19.08-11.54 27.64.74 53.1 5.64 75.76 14.61 24.48 9.69 45.26 22.62 61.75 38.4 17.63 16.87 33.61 37.81 47.49 62.25 14.57 25.61 26.31 52.21 34.9 79.04 8.98 28.05 16.53 58.98 22.44 91.92 5.98 33.44 10.04 64.87 12.02 93.42v.02c2.04 29.04 3.06 59.39 3.08 90.23-.02 59.13-16.72 103.78-51.09 136.48zm0 0z"/></g></g></svg>