<?xml version="1.0" encoding="UTF-8"?>
<!DOCTYPE svg PUBLIC "-//W3C//DTD SVG 1.1//EN" "http://www.w3.org/Graphics/SVG/1.1/DTD/svg11.dtd">
<!-- Creator: CorelDRAW 2019 (64-Bit) -->
<svg xmlns="http://www.w3.org/2000/svg" xml:space="preserve" width="95.2498mm" height="206.248mm" version="1.1" style="shape-rendering:geometricPrecision; text-rendering:geometricPrecision; image-rendering:optimizeQuality; fill-rule:evenodd; clip-rule:evenodd"
viewBox="0 0 9524.98 20624.78"
 xmlns:xlink="http://www.w3.org/1999/xlink"
 xmlns:xodm="http://www.corel.com/coreldraw/odm/2003">
 <defs>
  <style type="text/css">
   <![CDATA[
    .fil0 {fill:white}
   ]]>
  </style>
 </defs>
 <g id="Layer_x0020_1">
  <metadata id="CorelCorpID_0Corel-Layer"/>
  <g id="_2479135071840">
   <g>
    <g>
     <path class="fil0" d="M4758.26 8999.49c-524.36,0 -950.96,426.6 -950.96,950.96 0,650.75 851.02,1606.08 887.25,1646.43 34.03,37.91 93.45,37.84 127.42,0 36.23,-40.35 887.26,-995.68 887.26,-1646.43 -0.01,-524.36 -426.61,-950.96 -950.97,-950.96zm0 1429.42c-263.82,0 -478.45,-214.64 -478.45,-478.46 0,-263.82 214.64,-478.45 478.45,-478.45 263.82,0 478.45,214.63 478.45,478.46 0,263.82 -214.63,478.45 -478.45,478.45z"/>
    </g>
   </g>
   <g>
   </g>
   <g>
   </g>
   <g>
   </g>
   <g>
   </g>
   <g>
   </g>
   <g>
   </g>
   <g>
   </g>
   <g>
   </g>
   <g>
   </g>
   <g>
   </g>
   <g>
   </g>
   <g>
   </g>
   <g>
   </g>
   <g>
   </g>
   <g>
   </g>
  </g>
 </g>
</svg>
