<?xml version="1.0" encoding="UTF-8"?>
<!DOCTYPE svg PUBLIC "-//W3C//DTD SVG 1.1//EN" "http://www.w3.org/Graphics/SVG/1.1/DTD/svg11.dtd">
<!-- Creator: CorelDRAW 2019 (64-Bit) -->
<svg xmlns="http://www.w3.org/2000/svg" xml:space="preserve" width="95.2498mm" height="206.248mm" version="1.1" style="shape-rendering:geometricPrecision; text-rendering:geometricPrecision; image-rendering:optimizeQuality; fill-rule:evenodd; clip-rule:evenodd"
viewBox="0 0 9524.98 20624.78"
 xmlns:xlink="http://www.w3.org/1999/xlink"
 xmlns:xodm="http://www.corel.com/coreldraw/odm/2003">
 <defs>
  <style type="text/css">
   <![CDATA[
    .fil0 {fill:#222F3E}
   ]]>
  </style>
 </defs>
 <g id="Layer_x0020_1">
  <metadata id="CorelCorpID_0Corel-Layer"/>
  <g id="_1991780459440">
   <g>
    <g>
     <path class="fil0" d="M998.32 4419.67l-1159.82 0c-45.79,0 -82.84,37.05 -82.84,82.84l0 1159.82c0,45.79 37.05,82.84 82.84,82.84l1159.82 0c45.79,0 82.84,-37.05 82.84,-82.84l0 -1159.82c0,-45.79 -37.05,-82.84 -82.84,-82.84zm-82.84 1159.82l-994.13 0 0 -994.13 994.13 0 0 994.13z"/>
    </g>
   </g>
   <g>
    <g>
     <path class="fil0" d="M2500.56 4419.67l-1159.82 0c-45.79,0 -82.84,37.05 -82.84,82.84l0 1159.82c0,45.79 37.05,82.84 82.84,82.84l1159.82 0c45.79,0 82.84,-37.05 82.84,-82.84l0 -1159.82c0,-45.79 -37.05,-82.84 -82.84,-82.84zm-82.85 1159.82l-994.13 0 0 -994.13 994.13 0 0 994.13z"/>
    </g>
   </g>
   <g>
    <g>
     <path class="fil0" d="M2169.18 4751.05l-497.06 0c-45.79,0 -82.85,37.05 -82.85,82.84l0 497.06c0,45.79 37.06,82.85 82.85,82.85l497.06 0c45.79,0 82.84,-37.05 82.84,-82.84l0 -497.07c0,-45.79 -37.05,-82.84 -82.84,-82.84z"/>
    </g>
   </g>
   <g>
    <g>
     <path class="fil0" d="M666.94 4751.05l-497.06 0c-45.79,0 -82.84,37.05 -82.84,82.84l0 497.06c0,45.79 37.05,82.85 82.84,82.85l497.06 0c45.79,0 82.85,-37.05 82.85,-82.84l0 -497.07c0,-45.79 -37.05,-82.84 -82.85,-82.84z"/>
    </g>
   </g>
   <g>
    <g>
     <path class="fil0" d="M666.94 6253.28l-497.06 0c-45.79,0 -82.84,37.05 -82.84,82.84l0 497.07c0,45.79 37.05,82.84 82.84,82.84l497.06 0c45.79,0 82.85,-37.05 82.85,-82.84l0 -497.06c0,-45.8 -37.05,-82.85 -82.85,-82.85z"/>
    </g>
   </g>
   <g>
    <g>
     <path class="fil0" d="M998.32 5921.91l-1159.82 0c-45.79,0 -82.84,37.05 -82.84,82.84l0 1159.82c0,45.79 37.05,82.84 82.84,82.84l1159.82 0c45.79,0 82.84,-37.05 82.84,-82.84l0 -1159.82c0,-45.79 -37.05,-82.84 -82.84,-82.84zm-82.84 1159.81l-994.13 0 0 -994.13 994.13 0 0 994.13z"/>
    </g>
   </g>
   <g>
    <g>
     <path class="fil0" d="M2500.56 6418.97c-45.79,0 -82.85,37.05 -82.85,82.84l0 248.54 -414.22 0c-45.79,0 -82.84,37.05 -82.84,82.84l0 248.53 -497.07 0 0 -248.53c0,-45.79 -37.05,-82.84 -82.84,-82.84 -45.79,0 -82.84,37.05 -82.84,82.84l0 331.38c0,45.79 37.05,82.84 82.84,82.84l662.75 0c45.79,0 82.84,-37.05 82.84,-82.84l0 -248.54 414.23 0c45.79,0 82.84,-37.05 82.84,-82.84l0 -331.38c0,-45.79 -37.05,-82.84 -82.84,-82.84z"/>
    </g>
   </g>
   <g>
    <g>
     <path class="fil0" d="M1837.8 5921.91l-497.06 0c-45.79,0 -82.84,37.05 -82.84,82.84l0 497.06c0,45.79 37.05,82.85 82.84,82.85 45.79,0 82.84,-37.06 82.84,-82.85l0 -414.22 331.38 0 0 82.85c0,45.79 37.05,82.84 82.84,82.84 45.79,0 82.85,-37.05 82.85,-82.84l0 -165.69c0,-45.79 -37.06,-82.84 -82.85,-82.84z"/>
    </g>
   </g>
   <g>
    <g>
     <path class="fil0" d="M2500.56 5921.91l-331.38 0c-45.79,0 -82.84,37.05 -82.84,82.84l0 414.22 -414.22 0c-45.79,0 -82.85,37.05 -82.85,82.84l0 331.38c0,45.79 37.06,82.84 82.85,82.84 45.79,0 82.84,-37.05 82.84,-82.84l0 -248.53 414.22 0c45.79,0 82.84,-37.06 82.84,-82.85l0 -414.22 248.54 0c45.79,0 82.84,-37.05 82.84,-82.84 0,-45.79 -37.05,-82.84 -82.84,-82.84z"/>
    </g>
   </g>
   <g>
    <g>
     <path class="fil0" d="M2500.56 7081.72l-165.69 0c-45.79,0 -82.85,37.06 -82.85,82.85 0,45.79 37.06,82.84 82.85,82.84l165.69 0c45.79,0 82.84,-37.05 82.84,-82.84 0,-45.79 -37.05,-82.85 -82.84,-82.85z"/>
    </g>
   </g>
   <g>
   </g>
   <g>
   </g>
   <g>
   </g>
   <g>
   </g>
   <g>
   </g>
   <g>
   </g>
   <g>
   </g>
   <g>
   </g>
   <g>
   </g>
   <g>
   </g>
   <g>
   </g>
   <g>
   </g>
   <g>
   </g>
   <g>
   </g>
   <g>
   </g>
  </g>
 </g>
</svg>
