<svg xmlns="http://www.w3.org/2000/svg" width="359.999" height="779.52" version="1.0" viewBox="0 0 9524.98 20624.78" shape-rendering="geometricPrecision" text-rendering="geometricPrecision" image-rendering="optimizeQuality" fill-rule="evenodd" clip-rule="evenodd"><path d="M4077.47 10182.27c0-16.03 2.3-44.92 4.7-62.02 9.35-66.49 18.12-104.5 45.29-164.92 82.51-183.48 276.86-322.21 470.59-323.5 17.42-.11 19.39-3.45 33.29-3.45l122.05 14.78c136.12 29.88 252.97 111.11 331.68 222.16 15.67 22.07 40 63.82 50.55 89.58 55.46 135.33 67.25 263.13 20.01 404.67-6.28 18.83-13.35 33.74-20.01 50.06-36.01 87.99-110.41 171.99-187.34 226.4-54.27 38.38-124.08 69.86-192.05 84.86-87.13 19.23-159.53 20.58-247.06.62-44.4-10.14-69.22-20.23-105.2-34.96-153.24-62.69-273.55-215.25-311.15-379.5-4.75-20.74-7.5-37.15-10.68-59.37-2.43-16.83-4.67-49.77-4.67-65.41zm1338.71 984.26h-27.36c-27.4-1.75-54.53-8.77-79.11-21.09-21.31-10.68-37.79-23.79-53.62-39.79-23.82-24.03-269.67-272.9-284.45-282.77-193.97 102.63-451.36 114.75-649.54 15.61-121.41-60.74-203.47-128.18-282.74-237.74-26.49-36.64-43.24-67.28-64.26-109.25-54.46-108.87-67.78-209.13-67.78-339.26 0-54.11 11.73-111.7 22.63-154.18 9.93-38.68 28.83-92.63 46.29-127.21 70.91-140.67 142.64-217.12 266.75-300.47 10.73-7.23 15.07-10.11 26.86-16.51 134.33-73.04 228.5-95.62 384.84-95.62 131.83 0 288.6 53.19 393.18 130.64 109.57 81.11 171.02 146.95 239.67 284.14 53.05 106.04 67.81 207.7 67.81 335.94 0 106.23-46.4 243.66-83.43 313.63 12.09 17.99 250.62 249.78 282.83 284.39 74.2 79.76 72.45 221.35-4.51 297.52-18.67 18.46-34.07 30.3-58.02 42.09-23.55 11.6-49.58 18.23-76.04 19.93z" fill="#222f3e"/></svg>