<?xml version="1.0" encoding="UTF-8"?>
<!DOCTYPE svg PUBLIC "-//W3C//DTD SVG 1.0//EN" "http://www.w3.org/TR/2001/REC-SVG-20010904/DTD/svg10.dtd">
<!-- Creator: CorelDRAW 2019 (64-Bit) -->
<svg xmlns="http://www.w3.org/2000/svg" xml:space="preserve" width="95.2498mm" height="206.248mm" version="1.0" style="shape-rendering:geometricPrecision; text-rendering:geometricPrecision; image-rendering:optimizeQuality; fill-rule:evenodd; clip-rule:evenodd"
viewBox="0 0 9524.98 20624.78"
 xmlns:xlink="http://www.w3.org/1999/xlink"
 xmlns:xodm="http://www.corel.com/coreldraw/odm/2003">
 <defs>
  <style type="text/css">
   <![CDATA[
    .fil0 {fill:#222F3E}
   ]]>
  </style>
 </defs>
 <g id="Layer_x0020_1">
  <metadata id="CorelCorpID_0Corel-Layer"/>
  <g id="_1800260450848">
   <path class="fil0" d="M3124.75 9200.07c-143.52,0 -259.77,116.25 -259.77,259.77 0,143.52 116.25,259.77 259.77,259.77 143.52,0 259.77,-116.25 259.77,-259.77 0,-143.52 -116.25,-259.77 -259.77,-259.77zm580.59 194.82c-29.88,-270.81 -244.84,-485.77 -515.65,-515.64l0 -133.78 -129.89 0 0 133.78c-270.81,29.87 -485.77,244.83 -515.64,515.64l-133.78 0 0 129.89 133.78 0c29.87,270.81 244.84,485.77 515.65,515.65l0 133.78 129.88 0 0 -133.78c270.81,-29.88 485.77,-244.84 515.65,-515.65l133.78 0 0 -129.88 -133.78 -0.01 0 0zm-580.59 519.55c-251,0 -454.6,-203.6 -454.6,-454.6 0,-251 203.6,-454.6 454.6,-454.6 251,0 454.6,203.59 454.6,454.6 0,251.01 -203.6,454.6 -454.6,454.6z"/>
   <g>
   </g>
   <g>
   </g>
   <g>
   </g>
   <g>
   </g>
   <g>
   </g>
   <g>
   </g>
   <g>
   </g>
   <g>
   </g>
   <g>
   </g>
   <g>
   </g>
   <g>
   </g>
   <g>
   </g>
   <g>
   </g>
   <g>
   </g>
   <g>
   </g>
  </g>
 </g>
</svg>
