<?xml version="1.0" encoding="UTF-8"?>
<!DOCTYPE svg PUBLIC "-//W3C//DTD SVG 1.1//EN" "http://www.w3.org/Graphics/SVG/1.1/DTD/svg11.dtd">
<!-- Creator: CorelDRAW 2019 (64-Bit) -->
<svg xmlns="http://www.w3.org/2000/svg" xml:space="preserve" width="95.2498mm" height="206.248mm" version="1.1" style="shape-rendering:geometricPrecision; text-rendering:geometricPrecision; image-rendering:optimizeQuality; fill-rule:evenodd; clip-rule:evenodd"
viewBox="0 0 9524.98 20624.78"
 xmlns:xlink="http://www.w3.org/1999/xlink"
 xmlns:xodm="http://www.corel.com/coreldraw/odm/2003">
 <defs>
  <style type="text/css">
   <![CDATA[
    .fil0 {fill:#FF9F43}
   ]]>
  </style>
 </defs>
 <g id="Layer_x0020_1">
  <metadata id="CorelCorpID_0Corel-Layer"/>
  <g id="_2478916125360">
   <path class="fil0" d="M5613.23 9156.24l-1709.93 0c-214.3,0 -388.62,174.33 -388.62,388.62l0 1360.18c0,214.29 174.32,388.62 388.62,388.62l1326.16 0c53.67,0 97.16,-43.5 97.16,-97.16 0,-53.66 -43.49,-97.16 -97.16,-97.16l-357.84 0.01 -223.38 -289.8 707.88 -900.37 476.54 526.68c26.94,29.81 69.47,39.93 106.96,25.49 37.48,-14.46 62.23,-50.5 62.23,-90.67l0 -825.82c0,-214.29 -174.33,-388.62 -388.62,-388.62zm194.31 962.26l-384.58 -425.08c-19.21,-21.23 -46.84,-32.96 -75.41,-31.91 -28.6,1 -55.32,14.55 -73.02,37.06l-748.66 952.23 -254.16 -329.72c-18.39,-23.85 -46.81,-37.84 -76.95,-37.84 -0.02,0 -0.04,0 -0.05,0 -30.14,0.02 -58.58,14.03 -76.95,37.92l-213.82 277.95c-32.71,42.54 -24.76,103.53 17.77,136.24 42.54,32.74 103.53,24.77 136.26,-17.76l136.87 -177.95 431.45 559.71 -722.99 0c-107.14,0 -194.31,-87.18 -194.31,-194.31l0 -1360.18c0,-107.13 87.17,-194.31 194.31,-194.31l1709.93 0c107.13,0 194.31,87.18 194.31,194.31l0 573.64zm0 0z"/>
   <path class="fil0" d="M4194.76 9506c-160.72,0 -291.46,130.74 -291.46,291.47 0,160.72 130.74,291.46 291.46,291.46 160.73,0 291.47,-130.74 291.47,-291.46 0,-160.73 -130.74,-291.47 -291.47,-291.47zm0 388.62c-53.57,0 -97.15,-43.59 -97.15,-97.15 0,-53.57 43.58,-97.16 97.15,-97.16 53.57,0 97.16,43.59 97.16,97.16 0,53.56 -43.59,97.15 -97.16,97.15zm0 0z"/>
   <path class="fil0" d="M5790.42 10627.86c-0.29,-0.29 -0.57,-0.59 -0.85,-0.87 -45.93,-46.25 -107.01,-71.71 -172.02,-71.71 -64.82,0 -125.73,25.31 -171.59,71.29l-187.58 185.01c-38.2,37.67 -38.61,99.19 -0.93,137.38 37.67,38.2 99.19,38.64 137.39,0.95l125.56 -123.83 0 545.3c0,53.66 43.49,97.16 97.15,97.16 53.67,0 97.16,-43.5 97.16,-97.16l0 -542.34 120.17 124.14c19.05,19.69 44.42,29.58 69.81,29.58 24.35,0 48.71,-9.09 67.57,-27.34 38.56,-37.33 39.55,-98.83 2.22,-137.39l-184.06 -190.17zm0 0z"/>
  </g>
 </g>
</svg>
