<?xml version="1.0" encoding="UTF-8"?>
<!DOCTYPE svg PUBLIC "-//W3C//DTD SVG 1.1//EN" "http://www.w3.org/Graphics/SVG/1.1/DTD/svg11.dtd">
<!-- Creator: CorelDRAW 2019 (64-Bit) -->
<svg xmlns="http://www.w3.org/2000/svg" xml:space="preserve" width="95.2498mm" height="206.248mm" version="1.1" style="shape-rendering:geometricPrecision; text-rendering:geometricPrecision; image-rendering:optimizeQuality; fill-rule:evenodd; clip-rule:evenodd"
viewBox="0 0 9524.98 20624.78"
 xmlns:xlink="http://www.w3.org/1999/xlink"
 xmlns:xodm="http://www.corel.com/coreldraw/odm/2003">
 <defs>
  <style type="text/css">
   <![CDATA[
    .fil0 {fill:#222F3E}
   ]]>
  </style>
 </defs>
 <g id="Layer_x0020_1">
  <metadata id="CorelCorpID_0Corel-Layer"/>
  <g id="_1991829951008">
   <g>
    <g>
     <path class="fil0" d="M5202.76 8237.86l-383.37 0c19.3,-55.27 32.46,-114.06 32.46,-175.46 0,-290.39 -235.99,-526.38 -526.38,-526.38 -183.35,0 -344.78,93.87 -438.65,235.99l-87.73 119.32 -87.73 -119.32c-93.87,-142.12 -255.29,-235.99 -438.65,-235.99 -290.38,0 -526.38,235.99 -526.38,526.38 0,61.41 12.28,120.19 32.47,175.46l-383.39 0c-193.88,0 -349.16,157.03 -349.16,350.92l-1.76 1930.05c0,193.88 157.04,350.92 350.92,350.92l2807.35 0c193.88,0 350.92,-157.04 350.92,-350.92l0 -1930.05c0,-193.89 -157.04,-350.92 -350.92,-350.92zm-877.3 -350.93c96.5,0 175.46,78.96 175.46,175.46 0,96.5 -78.95,175.47 -175.46,175.47 -96.51,0 -175.46,-78.96 -175.46,-175.46 0,-96.5 78.96,-175.47 175.46,-175.47zm-1052.76 0c96.5,0 175.46,78.96 175.46,175.46 0,96.5 -78.95,175.47 -175.46,175.47 -96.5,0 -175.45,-78.96 -175.45,-175.46 0,-96.5 78.95,-175.47 175.45,-175.47zm1930.06 2631.9l-2807.35 0 0 -350.92 2807.35 0 0 350.92zm0 -877.29l-2807.35 0 0 -1052.76 891.33 0 -364.95 497.42 285.12 204.41 416.72 -567.61 175.45 -238.62 175.46 238.62 416.72 567.61 285.12 -204.4 -364.95 -497.43 891.33 0 0 1052.76z"/>
    </g>
   </g>
   <g>
   </g>
   <g>
   </g>
   <g>
   </g>
   <g>
   </g>
   <g>
   </g>
   <g>
   </g>
   <g>
   </g>
   <g>
   </g>
   <g>
   </g>
   <g>
   </g>
   <g>
   </g>
   <g>
   </g>
   <g>
   </g>
   <g>
   </g>
   <g>
   </g>
  </g>
 </g>
</svg>
